# xmcd
#
# Track frame offsets:
#	150
#	17423
#	34871
#	53309
#	72705
#	90466
#	110084
#	131751
#	158123
#	173914
#	197444
#	215521
#	238003
#	257751
#
# Disc length: 3671 seconds
#
# Revision: 0
# Processed by: cddbd v1.5.1PL2 Copyright (c) Steve Scherf et al.
# Submitted via: dBpowerAMP V4.0
#
DISCID=bd0e550e
DTITLE=Luiz Marenco - Estâncias da Fronteira
DYEAR=1999
DGENRE=Gaucha
TTITLE0=Estâncias da Fronteira
TTITLE1=Vaneira da Bossoroca
TTITLE2=Pago Perdido
TTITLE3=Campesino Cantador
TTITLE4=Pueblero de Allá Ité
TTITLE5=Fronteiro de Alma e Pampa
TTITLE6=Quando a Alma Volta Pra Terra
TTITLE7=O Último Adeus de Quem Ganha o Céu
TTITLE8=Pra Quem faz Pátria num Basto
TTITLE9=O Forasteiro
TTITLE10=Porque Canto Solito
TTITLE11=Onde Andará
TTITLE12=De Boca em Boca
TTITLE13=Canto de Quem é Campo
EXTD=CD de música gauchesca
EXTT0=
EXTT1=
EXTT2=
EXTT3=
EXTT4=
EXTT5=
EXTT6=
EXTT7=
EXTT8=
EXTT9=
EXTT10=
EXTT11=
EXTT12=
EXTT13=
PLAYORDER=
